<svg width="36" height="36" viewBox="0 0 36 36" fill="none" xmlns="http://www.w3.org/2000/svg">
<path d="M18 36C12.975 36 8.71875 34.2562 5.23125 30.7687C1.74375 27.2812 0 23.025 0 18C0 12.975 1.74375 8.71875 5.23125 5.23125C8.71875 1.74375 12.975 0 18 0C20.5875 0 23.0625 0.53475 25.425 1.60425C27.7875 2.67225 29.8125 4.2 31.5 6.1875V2.25C31.5 1.6125 31.716 1.07775 32.148 0.64575C32.5785 0.21525 33.1125 0 33.75 0C34.3875 0 34.9215 0.21525 35.352 0.64575C35.784 1.07775 36 1.6125 36 2.25V13.5C36 14.1375 35.784 14.6715 35.352 15.102C34.9215 15.534 34.3875 15.75 33.75 15.75H22.5C21.8625 15.75 21.3285 15.534 20.898 15.102C20.466 14.6715 20.25 14.1375 20.25 13.5C20.25 12.8625 20.466 12.3277 20.898 11.8957C21.3285 11.4652 21.8625 11.25 22.5 11.25H29.7C28.5 9.15 26.8597 7.5 24.7792 6.3C22.6972 5.1 20.4375 4.5 18 4.5C14.25 4.5 11.0625 5.8125 8.4375 8.4375C5.8125 11.0625 4.5 14.25 4.5 18C4.5 21.75 5.8125 24.9375 8.4375 27.5625C11.0625 30.1875 14.25 31.5 18 31.5C20.5875 31.5 22.9785 30.8152 25.173 29.4457C27.366 28.0777 29.0063 26.25 30.0938 23.9625C30.2813 23.55 30.591 23.2035 31.023 22.923C31.4535 22.641 31.8937 22.5 32.3438 22.5C33.2062 22.5 33.8535 22.8 34.2855 23.4C34.716 24 34.7625 24.675 34.425 25.425C33 28.6125 30.8063 31.1715 27.8438 33.102C24.8812 35.034 21.6 36 18 36Z" fill="#A2F732"/>
</svg>
