<svg width="138" height="62" viewBox="0 0 138 62" fill="none" xmlns="http://www.w3.org/2000/svg">
<mask id="path-1-outside-1_15_60" maskUnits="userSpaceOnUse" x="9" y="17" width="120" height="27" fill="black">
<rect fill="white" x="9" y="17" width="120" height="27"/>
<path d="M26.716 27.672C26.716 28.8107 26.4547 29.856 25.932 30.808C25.4093 31.7413 24.6067 32.4973 23.524 33.076C22.4413 33.6547 21.0973 33.944 19.492 33.944H16.524V41H11.736V21.344H19.492C21.06 21.344 22.3853 21.6147 23.468 22.156C24.5507 22.6973 25.3627 23.444 25.904 24.396C26.4453 25.348 26.716 26.44 26.716 27.672ZM19.128 30.136C20.0427 30.136 20.724 29.9213 21.172 29.492C21.62 29.0627 21.844 28.456 21.844 27.672C21.844 26.888 21.62 26.2813 21.172 25.852C20.724 25.4227 20.0427 25.208 19.128 25.208H16.524V30.136H19.128ZM33.9967 27.98C34.5567 27.1213 35.2567 26.4493 36.0967 25.964C36.9367 25.46 37.87 25.208 38.8967 25.208V30.276H37.5807C36.386 30.276 35.49 30.5373 34.8927 31.06C34.2953 31.564 33.9967 32.46 33.9967 33.748V41H29.2087V25.376H33.9967V27.98ZM48.2972 41.224C46.7666 41.224 45.3852 40.8973 44.1532 40.244C42.9399 39.5907 41.9786 38.6573 41.2692 37.444C40.5786 36.2307 40.2332 34.812 40.2332 33.188C40.2332 31.5827 40.5879 30.1733 41.2972 28.96C42.0066 27.728 42.9772 26.7853 44.2092 26.132C45.4412 25.4787 46.8226 25.152 48.3532 25.152C49.8839 25.152 51.2652 25.4787 52.4972 26.132C53.7292 26.7853 54.6999 27.728 55.4092 28.96C56.1186 30.1733 56.4732 31.5827 56.4732 33.188C56.4732 34.7933 56.1092 36.212 55.3812 37.444C54.6719 38.6573 53.6919 39.5907 52.4412 40.244C51.2092 40.8973 49.8279 41.224 48.2972 41.224ZM48.2972 37.08C49.2119 37.08 49.9866 36.744 50.6212 36.072C51.2746 35.4 51.6012 34.4387 51.6012 33.188C51.6012 31.9373 51.2839 30.976 50.6492 30.304C50.0332 29.632 49.2679 29.296 48.3532 29.296C47.4199 29.296 46.6452 29.632 46.0292 30.304C45.4132 30.9573 45.1052 31.9187 45.1052 33.188C45.1052 34.4387 45.4039 35.4 46.0012 36.072C46.6172 36.744 47.3826 37.08 48.2972 37.08ZM58.0613 33.188C58.0613 31.564 58.388 30.1453 59.0413 28.932C59.7133 27.7187 60.6373 26.7853 61.8133 26.132C63.008 25.4787 64.3707 25.152 65.9013 25.152C67.8613 25.152 69.4947 25.6653 70.8013 26.692C72.1267 27.7187 72.9947 29.1653 73.4053 31.032H68.3093C67.88 29.8373 67.0493 29.24 65.8173 29.24C64.94 29.24 64.24 29.5853 63.7173 30.276C63.1947 30.948 62.9333 31.9187 62.9333 33.188C62.9333 34.4573 63.1947 35.4373 63.7173 36.128C64.24 36.8 64.94 37.136 65.8173 37.136C67.0493 37.136 67.88 36.5387 68.3093 35.344H73.4053C72.9947 37.1733 72.1267 38.6107 70.8013 39.656C69.476 40.7013 67.8427 41.224 65.9013 41.224C64.3707 41.224 63.008 40.8973 61.8133 40.244C60.6373 39.5907 59.7133 38.6573 59.0413 37.444C58.388 36.2307 58.0613 34.812 58.0613 33.188ZM90.6945 32.936C90.6945 33.384 90.6665 33.8507 90.6105 34.336H79.7745C79.8491 35.3067 80.1571 36.0533 80.6985 36.576C81.2585 37.08 81.9398 37.332 82.7425 37.332C83.9371 37.332 84.7678 36.828 85.2345 35.82H90.3305C90.0691 36.8467 89.5931 37.7707 88.9025 38.592C88.2305 39.4133 87.3811 40.0573 86.3545 40.524C85.3278 40.9907 84.1798 41.224 82.9105 41.224C81.3798 41.224 80.0171 40.8973 78.8225 40.244C77.6278 39.5907 76.6945 38.6573 76.0225 37.444C75.3505 36.2307 75.0145 34.812 75.0145 33.188C75.0145 31.564 75.3411 30.1453 75.9945 28.932C76.6665 27.7187 77.5998 26.7853 78.7945 26.132C79.9891 25.4787 81.3611 25.152 82.9105 25.152C84.4225 25.152 85.7665 25.4693 86.9425 26.104C88.1185 26.7387 89.0331 27.644 89.6865 28.82C90.3585 29.996 90.6945 31.368 90.6945 32.936ZM85.7945 31.676C85.7945 30.8547 85.5145 30.2013 84.9545 29.716C84.3945 29.2307 83.6945 28.988 82.8545 28.988C82.0518 28.988 81.3705 29.2213 80.8105 29.688C80.2691 30.1547 79.9331 30.8173 79.8025 31.676H85.7945ZM107.948 32.936C107.948 33.384 107.92 33.8507 107.864 34.336H97.0284C97.103 35.3067 97.411 36.0533 97.9524 36.576C98.5124 37.08 99.1937 37.332 99.9964 37.332C101.191 37.332 102.022 36.828 102.488 35.82H107.584C107.323 36.8467 106.847 37.7707 106.156 38.592C105.484 39.4133 104.635 40.0573 103.608 40.524C102.582 40.9907 101.434 41.224 100.164 41.224C98.6337 41.224 97.271 40.8973 96.0764 40.244C94.8817 39.5907 93.9484 38.6573 93.2764 37.444C92.6044 36.2307 92.2684 34.812 92.2684 33.188C92.2684 31.564 92.595 30.1453 93.2484 28.932C93.9204 27.7187 94.8537 26.7853 96.0484 26.132C97.243 25.4787 98.615 25.152 100.164 25.152C101.676 25.152 103.02 25.4693 104.196 26.104C105.372 26.7387 106.287 27.644 106.94 28.82C107.612 29.996 107.948 31.368 107.948 32.936ZM103.048 31.676C103.048 30.8547 102.768 30.2013 102.208 29.716C101.648 29.2307 100.948 28.988 100.108 28.988C99.3057 28.988 98.6244 29.2213 98.0644 29.688C97.523 30.1547 97.187 30.8173 97.0564 31.676H103.048ZM109.522 33.16C109.522 31.5547 109.821 30.1453 110.418 28.932C111.034 27.7187 111.865 26.7853 112.91 26.132C113.956 25.4787 115.122 25.152 116.41 25.152C117.437 25.152 118.37 25.3667 119.21 25.796C120.069 26.2253 120.741 26.804 121.226 27.532V20.28H126.014V41H121.226V38.76C120.778 39.5067 120.134 40.104 119.294 40.552C118.473 41 117.512 41.224 116.41 41.224C115.122 41.224 113.956 40.8973 112.91 40.244C111.865 39.572 111.034 38.6293 110.418 37.416C109.821 36.184 109.522 34.7653 109.522 33.16ZM121.226 33.188C121.226 31.9933 120.89 31.0507 120.218 30.36C119.565 29.6693 118.762 29.324 117.81 29.324C116.858 29.324 116.046 29.6693 115.374 30.36C114.721 31.032 114.394 31.9653 114.394 33.16C114.394 34.3547 114.721 35.3067 115.374 36.016C116.046 36.7067 116.858 37.052 117.81 37.052C118.762 37.052 119.565 36.7067 120.218 36.016C120.89 35.3253 121.226 34.3827 121.226 33.188Z"/>
</mask>
<path d="M26.716 27.672C26.716 28.8107 26.4547 29.856 25.932 30.808C25.4093 31.7413 24.6067 32.4973 23.524 33.076C22.4413 33.6547 21.0973 33.944 19.492 33.944H16.524V41H11.736V21.344H19.492C21.06 21.344 22.3853 21.6147 23.468 22.156C24.5507 22.6973 25.3627 23.444 25.904 24.396C26.4453 25.348 26.716 26.44 26.716 27.672ZM19.128 30.136C20.0427 30.136 20.724 29.9213 21.172 29.492C21.62 29.0627 21.844 28.456 21.844 27.672C21.844 26.888 21.62 26.2813 21.172 25.852C20.724 25.4227 20.0427 25.208 19.128 25.208H16.524V30.136H19.128ZM33.9967 27.98C34.5567 27.1213 35.2567 26.4493 36.0967 25.964C36.9367 25.46 37.87 25.208 38.8967 25.208V30.276H37.5807C36.386 30.276 35.49 30.5373 34.8927 31.06C34.2953 31.564 33.9967 32.46 33.9967 33.748V41H29.2087V25.376H33.9967V27.98ZM48.2972 41.224C46.7666 41.224 45.3852 40.8973 44.1532 40.244C42.9399 39.5907 41.9786 38.6573 41.2692 37.444C40.5786 36.2307 40.2332 34.812 40.2332 33.188C40.2332 31.5827 40.5879 30.1733 41.2972 28.96C42.0066 27.728 42.9772 26.7853 44.2092 26.132C45.4412 25.4787 46.8226 25.152 48.3532 25.152C49.8839 25.152 51.2652 25.4787 52.4972 26.132C53.7292 26.7853 54.6999 27.728 55.4092 28.96C56.1186 30.1733 56.4732 31.5827 56.4732 33.188C56.4732 34.7933 56.1092 36.212 55.3812 37.444C54.6719 38.6573 53.6919 39.5907 52.4412 40.244C51.2092 40.8973 49.8279 41.224 48.2972 41.224ZM48.2972 37.08C49.2119 37.08 49.9866 36.744 50.6212 36.072C51.2746 35.4 51.6012 34.4387 51.6012 33.188C51.6012 31.9373 51.2839 30.976 50.6492 30.304C50.0332 29.632 49.2679 29.296 48.3532 29.296C47.4199 29.296 46.6452 29.632 46.0292 30.304C45.4132 30.9573 45.1052 31.9187 45.1052 33.188C45.1052 34.4387 45.4039 35.4 46.0012 36.072C46.6172 36.744 47.3826 37.08 48.2972 37.08ZM58.0613 33.188C58.0613 31.564 58.388 30.1453 59.0413 28.932C59.7133 27.7187 60.6373 26.7853 61.8133 26.132C63.008 25.4787 64.3707 25.152 65.9013 25.152C67.8613 25.152 69.4947 25.6653 70.8013 26.692C72.1267 27.7187 72.9947 29.1653 73.4053 31.032H68.3093C67.88 29.8373 67.0493 29.24 65.8173 29.24C64.94 29.24 64.24 29.5853 63.7173 30.276C63.1947 30.948 62.9333 31.9187 62.9333 33.188C62.9333 34.4573 63.1947 35.4373 63.7173 36.128C64.24 36.8 64.94 37.136 65.8173 37.136C67.0493 37.136 67.88 36.5387 68.3093 35.344H73.4053C72.9947 37.1733 72.1267 38.6107 70.8013 39.656C69.476 40.7013 67.8427 41.224 65.9013 41.224C64.3707 41.224 63.008 40.8973 61.8133 40.244C60.6373 39.5907 59.7133 38.6573 59.0413 37.444C58.388 36.2307 58.0613 34.812 58.0613 33.188ZM90.6945 32.936C90.6945 33.384 90.6665 33.8507 90.6105 34.336H79.7745C79.8491 35.3067 80.1571 36.0533 80.6985 36.576C81.2585 37.08 81.9398 37.332 82.7425 37.332C83.9371 37.332 84.7678 36.828 85.2345 35.82H90.3305C90.0691 36.8467 89.5931 37.7707 88.9025 38.592C88.2305 39.4133 87.3811 40.0573 86.3545 40.524C85.3278 40.9907 84.1798 41.224 82.9105 41.224C81.3798 41.224 80.0171 40.8973 78.8225 40.244C77.6278 39.5907 76.6945 38.6573 76.0225 37.444C75.3505 36.2307 75.0145 34.812 75.0145 33.188C75.0145 31.564 75.3411 30.1453 75.9945 28.932C76.6665 27.7187 77.5998 26.7853 78.7945 26.132C79.9891 25.4787 81.3611 25.152 82.9105 25.152C84.4225 25.152 85.7665 25.4693 86.9425 26.104C88.1185 26.7387 89.0331 27.644 89.6865 28.82C90.3585 29.996 90.6945 31.368 90.6945 32.936ZM85.7945 31.676C85.7945 30.8547 85.5145 30.2013 84.9545 29.716C84.3945 29.2307 83.6945 28.988 82.8545 28.988C82.0518 28.988 81.3705 29.2213 80.8105 29.688C80.2691 30.1547 79.9331 30.8173 79.8025 31.676H85.7945ZM107.948 32.936C107.948 33.384 107.92 33.8507 107.864 34.336H97.0284C97.103 35.3067 97.411 36.0533 97.9524 36.576C98.5124 37.08 99.1937 37.332 99.9964 37.332C101.191 37.332 102.022 36.828 102.488 35.82H107.584C107.323 36.8467 106.847 37.7707 106.156 38.592C105.484 39.4133 104.635 40.0573 103.608 40.524C102.582 40.9907 101.434 41.224 100.164 41.224C98.6337 41.224 97.271 40.8973 96.0764 40.244C94.8817 39.5907 93.9484 38.6573 93.2764 37.444C92.6044 36.2307 92.2684 34.812 92.2684 33.188C92.2684 31.564 92.595 30.1453 93.2484 28.932C93.9204 27.7187 94.8537 26.7853 96.0484 26.132C97.243 25.4787 98.615 25.152 100.164 25.152C101.676 25.152 103.02 25.4693 104.196 26.104C105.372 26.7387 106.287 27.644 106.94 28.82C107.612 29.996 107.948 31.368 107.948 32.936ZM103.048 31.676C103.048 30.8547 102.768 30.2013 102.208 29.716C101.648 29.2307 100.948 28.988 100.108 28.988C99.3057 28.988 98.6244 29.2213 98.0644 29.688C97.523 30.1547 97.187 30.8173 97.0564 31.676H103.048ZM109.522 33.16C109.522 31.5547 109.821 30.1453 110.418 28.932C111.034 27.7187 111.865 26.7853 112.91 26.132C113.956 25.4787 115.122 25.152 116.41 25.152C117.437 25.152 118.37 25.3667 119.21 25.796C120.069 26.2253 120.741 26.804 121.226 27.532V20.28H126.014V41H121.226V38.76C120.778 39.5067 120.134 40.104 119.294 40.552C118.473 41 117.512 41.224 116.41 41.224C115.122 41.224 113.956 40.8973 112.91 40.244C111.865 39.572 111.034 38.6293 110.418 37.416C109.821 36.184 109.522 34.7653 109.522 33.16ZM121.226 33.188C121.226 31.9933 120.89 31.0507 120.218 30.36C119.565 29.6693 118.762 29.324 117.81 29.324C116.858 29.324 116.046 29.6693 115.374 30.36C114.721 31.032 114.394 31.9653 114.394 33.16C114.394 34.3547 114.721 35.3067 115.374 36.016C116.046 36.7067 116.858 37.052 117.81 37.052C118.762 37.052 119.565 36.7067 120.218 36.016C120.89 35.3253 121.226 34.3827 121.226 33.188Z" fill="white"/>
<path d="M25.932 30.808L28.1133 32.0295L28.1184 32.0203L28.1234 32.0111L25.932 30.808ZM23.524 33.076L22.3456 30.8712L22.3456 30.8712L23.524 33.076ZM16.524 33.944V31.444H14.024V33.944H16.524ZM16.524 41V43.5H19.024V41H16.524ZM11.736 41H9.236V43.5H11.736V41ZM11.736 21.344V18.844H9.236V21.344H11.736ZM23.468 22.156L24.586 19.9199L24.586 19.9199L23.468 22.156ZM25.904 24.396L23.7308 25.6318L25.904 24.396ZM16.524 25.208V22.708H14.024V25.208H16.524ZM16.524 30.136H14.024V32.636H16.524V30.136ZM24.216 27.672C24.216 28.4112 24.0509 29.0396 23.7406 29.6049L28.1234 32.0111C28.8585 30.6724 29.216 29.2102 29.216 27.672H24.216ZM23.7507 29.5865C23.4945 30.0441 23.0706 30.4837 22.3456 30.8712L24.7024 35.2808C26.1428 34.511 27.3242 33.4386 28.1133 32.0295L23.7507 29.5865ZM22.3456 30.8712C21.7199 31.2056 20.8086 31.444 19.492 31.444V36.444C21.3861 36.444 23.1628 36.1037 24.7024 35.2808L22.3456 30.8712ZM19.492 31.444H16.524V36.444H19.492V31.444ZM14.024 33.944V41H19.024V33.944H14.024ZM16.524 38.5H11.736V43.5H16.524V38.5ZM14.236 41V21.344H9.236V41H14.236ZM11.736 23.844H19.492V18.844H11.736V23.844ZM19.492 23.844C20.7826 23.844 21.7015 24.0678 22.35 24.3921L24.586 19.9199C23.0692 19.1615 21.3374 18.844 19.492 18.844V23.844ZM22.35 24.3921C23.0381 24.7361 23.4598 25.1552 23.7308 25.6318L28.0772 23.1602C27.2655 21.7327 26.0632 20.6585 24.586 19.9199L22.35 24.3921ZM23.7308 25.6318C24.0322 26.1619 24.216 26.8181 24.216 27.672H29.216C29.216 26.0619 28.8584 24.5341 28.0772 23.1602L23.7308 25.6318ZM19.128 32.636C20.3852 32.636 21.8083 32.3449 22.9018 31.297L19.4422 27.687C19.5347 27.5984 19.6035 27.5812 19.5737 27.5905C19.5332 27.6033 19.3982 27.636 19.128 27.636V32.636ZM22.9018 31.297C23.9641 30.2789 24.344 28.9472 24.344 27.672H19.344C19.344 27.8293 19.3212 27.8748 19.3308 27.8491C19.3358 27.8354 19.3473 27.8091 19.3686 27.7763C19.3901 27.7431 19.4157 27.7125 19.4422 27.687L22.9018 31.297ZM24.344 27.672C24.344 26.3968 23.9641 25.0651 22.9018 24.047L19.4422 27.657C19.4157 27.6315 19.3901 27.6009 19.3686 27.5677C19.3473 27.5349 19.3358 27.5086 19.3308 27.4949C19.3212 27.4692 19.344 27.5147 19.344 27.672H24.344ZM22.9018 24.047C21.8083 22.9991 20.3852 22.708 19.128 22.708V27.708C19.3982 27.708 19.5332 27.7407 19.5737 27.7534C19.6035 27.7628 19.5347 27.7456 19.4422 27.657L22.9018 24.047ZM19.128 22.708H16.524V27.708H19.128V22.708ZM14.024 25.208V30.136H19.024V25.208H14.024ZM16.524 32.636H19.128V27.636H16.524V32.636ZM33.9967 27.98H31.4967V36.3898L36.0907 29.3457L33.9967 27.98ZM36.0967 25.964L37.3473 28.1287L37.3652 28.1183L37.3829 28.1077L36.0967 25.964ZM38.8967 25.208H41.3967V22.708H38.8967V25.208ZM38.8967 30.276V32.776H41.3967V30.276H38.8967ZM34.8927 31.06L36.5048 32.9707L36.522 32.9562L36.5389 32.9414L34.8927 31.06ZM33.9967 41V43.5H36.4967V41H33.9967ZM29.2087 41H26.7087V43.5H29.2087V41ZM29.2087 25.376V22.876H26.7087V25.376H29.2087ZM33.9967 25.376H36.4967V22.876H33.9967V25.376ZM36.0907 29.3457C36.4487 28.7967 36.8666 28.4064 37.3473 28.1287L34.846 23.7993C33.6467 24.4922 32.6646 25.446 31.9026 26.6143L36.0907 29.3457ZM37.3829 28.1077C37.8153 27.8483 38.3004 27.708 38.8967 27.708V22.708C37.4396 22.708 36.058 23.0717 34.8104 23.8203L37.3829 28.1077ZM36.3967 25.208V30.276H41.3967V25.208H36.3967ZM38.8967 27.776H37.5807V32.776H38.8967V27.776ZM37.5807 27.776C36.0765 27.776 34.4815 28.0978 33.2464 29.1786L36.5389 32.9414C36.4984 32.9769 36.6954 32.776 37.5807 32.776V27.776ZM33.2805 29.1493C31.8415 30.3634 31.4967 32.1893 31.4967 33.748H36.4967C36.4967 33.2819 36.5526 33.0198 36.5924 32.9006C36.6267 32.7974 36.6244 32.8698 36.5048 32.9707L33.2805 29.1493ZM31.4967 33.748V41H36.4967V33.748H31.4967ZM33.9967 38.5H29.2087V43.5H33.9967V38.5ZM31.7087 41V25.376H26.7087V41H31.7087ZM29.2087 27.876H33.9967V22.876H29.2087V27.876ZM31.4967 25.376V27.98H36.4967V25.376H31.4967ZM44.1532 40.244L42.968 42.4452L42.975 42.4489L42.982 42.4527L44.1532 40.244ZM41.2692 37.444L39.0966 38.6807L39.1037 38.6933L39.111 38.7057L41.2692 37.444ZM41.2972 28.96L43.4555 30.2217L43.4596 30.2146L43.4638 30.2074L41.2972 28.96ZM44.2092 26.132L45.3805 28.3407L45.3805 28.3407L44.2092 26.132ZM52.4972 26.132L51.326 28.3407L51.326 28.3407L52.4972 26.132ZM55.4092 28.96L53.2427 30.2074L53.2468 30.2146L53.251 30.2217L55.4092 28.96ZM55.3812 37.444L53.2289 36.1722L53.223 36.1823L55.3812 37.444ZM52.4412 40.244L51.2837 38.0281L51.2768 38.0317L51.27 38.0353L52.4412 40.244ZM50.6212 36.072L48.8287 34.3293L48.8161 34.3423L48.8037 34.3554L50.6212 36.072ZM50.6492 30.304L48.8063 31.9933L48.8189 32.007L48.8317 32.0206L50.6492 30.304ZM46.0292 30.304L47.8482 32.019L47.8602 32.0063L47.8721 31.9933L46.0292 30.304ZM46.0012 36.072L44.1327 37.7329L44.1454 37.7472L44.1583 37.7613L46.0012 36.072ZM48.2972 38.724C47.1342 38.724 46.1614 38.4792 45.3245 38.0353L42.982 42.4527C44.609 43.3155 46.3989 43.724 48.2972 43.724V38.724ZM45.3385 38.0428C44.538 37.6118 43.9098 37.0073 43.4275 36.1823L39.111 38.7057C40.0473 40.3074 41.3418 41.5695 42.968 42.4452L45.3385 38.0428ZM43.4419 36.2073C42.9985 35.4284 42.7332 34.4498 42.7332 33.188H37.7332C37.7332 35.1742 38.1586 37.033 39.0966 38.6807L43.4419 36.2073ZM42.7332 33.188C42.7332 31.962 43.0002 31.0004 43.4555 30.2217L39.139 27.6983C38.1755 29.3462 37.7332 31.2034 37.7332 33.188H42.7332ZM43.4638 30.2074C43.9432 29.3747 44.5725 28.7691 45.3805 28.3407L43.038 23.9233C41.3819 24.8016 40.0699 26.0813 39.1307 27.7126L43.4638 30.2074ZM45.3805 28.3407C46.2174 27.8968 47.1902 27.652 48.3532 27.652V22.652C46.4549 22.652 44.665 23.0605 43.038 23.9233L45.3805 28.3407ZM48.3532 27.652C49.5162 27.652 50.489 27.8968 51.326 28.3407L53.6685 23.9233C52.0414 23.0605 50.2515 22.652 48.3532 22.652V27.652ZM51.326 28.3407C52.1339 28.7691 52.7632 29.3747 53.2427 30.2074L57.5758 27.7126C56.6365 26.0813 55.3245 24.8016 53.6685 23.9233L51.326 28.3407ZM53.251 30.2217C53.7062 31.0004 53.9732 31.962 53.9732 33.188H58.9732C58.9732 31.2034 58.5309 29.3462 57.5675 27.6983L53.251 30.2217ZM53.9732 33.188C53.9732 34.4017 53.7025 35.3707 53.2289 36.1722L57.5335 38.7158C58.5159 37.0533 58.9732 35.185 58.9732 33.188H53.9732ZM53.223 36.1823C52.7519 36.9881 52.1195 37.5915 51.2837 38.0281L53.5988 42.4599C55.2643 41.5898 56.5919 40.3266 57.5395 38.7057L53.223 36.1823ZM51.27 38.0353C50.433 38.4792 49.4602 38.724 48.2972 38.724V43.724C50.1955 43.724 51.9854 43.3155 53.6125 42.4527L51.27 38.0353ZM48.2972 39.58C49.9079 39.58 51.3375 38.9546 52.4388 37.7886L48.8037 34.3554C48.6356 34.5334 48.5159 34.58 48.2972 34.58V39.58ZM52.4137 37.8147C53.6559 36.537 54.1012 34.8657 54.1012 33.188H49.1012C49.1012 34.0116 48.8932 34.263 48.8287 34.3293L52.4137 37.8147ZM54.1012 33.188C54.1012 31.5286 53.6754 29.8672 52.4668 28.5874L48.8317 32.0206C48.8924 32.0848 49.1012 32.3461 49.1012 33.188H54.1012ZM52.4921 28.6147C51.4008 27.4241 49.966 26.796 48.3532 26.796V31.796C48.5698 31.796 48.6657 31.8399 48.8063 31.9933L52.4921 28.6147ZM48.3532 26.796C46.7381 26.796 45.2885 27.4123 44.1863 28.6147L47.8721 31.9933C48.0019 31.8517 48.1017 31.796 48.3532 31.796V26.796ZM44.2102 28.589C43.0041 29.8682 42.6052 31.5454 42.6052 33.188H47.6052C47.6052 32.2919 47.8223 32.0465 47.8482 32.019L44.2102 28.589ZM42.6052 33.188C42.6052 34.8116 42.9936 36.4514 44.1327 37.7329L47.8697 34.4111C47.8142 34.3486 47.6052 34.0658 47.6052 33.188H42.6052ZM44.1583 37.7613C45.2497 38.9519 46.6845 39.58 48.2972 39.58V34.58C48.0806 34.58 47.9848 34.5361 47.8441 34.3827L44.1583 37.7613ZM59.0413 28.932L56.8544 27.7207L56.8472 27.7337L56.8402 27.7467L59.0413 28.932ZM61.8133 26.132L60.6138 23.9386L60.6065 23.9426L60.5992 23.9466L61.8133 26.132ZM70.8013 26.692L69.2568 28.6578L69.2636 28.6631L69.2703 28.6684L70.8013 26.692ZM73.4053 31.032V33.532H76.5151L75.847 30.4948L73.4053 31.032ZM68.3093 31.032L65.9567 31.8775L66.5512 33.532H68.3093V31.032ZM63.7173 30.276L65.6907 31.8109L65.7009 31.7978L65.7109 31.7846L63.7173 30.276ZM63.7173 36.128L61.7238 37.6366L61.7338 37.6498L61.744 37.6629L63.7173 36.128ZM68.3093 35.344V32.844H66.5512L65.9567 34.4985L68.3093 35.344ZM73.4053 35.344L75.8446 35.8916L76.5288 32.844H73.4053V35.344ZM70.8013 39.656L69.2531 37.6931L69.2531 37.6931L70.8013 39.656ZM61.8133 40.244L60.5992 42.4294L60.6065 42.4334L60.6138 42.4374L61.8133 40.244ZM59.0413 37.444L56.8402 38.6292L56.8472 38.6423L56.8544 38.6552L59.0413 37.444ZM60.5613 33.188C60.5613 31.9038 60.8176 30.9064 61.2425 30.1172L56.8402 27.7467C55.9584 29.3843 55.5613 31.2242 55.5613 33.188H60.5613ZM61.2283 30.1432C61.681 29.3259 62.2737 28.7362 63.0275 28.3174L60.5992 23.9466C59.001 24.8345 57.7457 26.1114 56.8544 27.7207L61.2283 30.1432ZM63.0129 28.3254C63.796 27.8972 64.737 27.652 65.9013 27.652V22.652C64.0043 22.652 62.2201 23.0602 60.6138 23.9386L63.0129 28.3254ZM65.9013 27.652C67.4057 27.652 68.4663 28.0367 69.2568 28.6578L72.3459 24.7262C70.5231 23.294 68.317 22.652 65.9013 22.652V27.652ZM69.2703 28.6684C70.0688 29.2869 70.6602 30.1892 70.9637 31.5692L75.847 30.4948C75.3292 28.1414 74.1846 26.1505 72.3323 24.7156L69.2703 28.6684ZM73.4053 28.532H68.3093V33.532H73.4053V28.532ZM70.662 30.1865C70.3178 29.2286 69.7393 28.3166 68.8239 27.6583C67.9024 26.9957 66.8478 26.74 65.8173 26.74V31.74C65.924 31.74 65.9693 31.7529 65.9707 31.7533C65.9714 31.7535 65.9636 31.7513 65.95 31.7447C65.9362 31.7381 65.9205 31.729 65.9048 31.7177C65.8701 31.6927 65.8589 31.6744 65.867 31.6859C65.8775 31.7008 65.9132 31.7566 65.9567 31.8775L70.662 30.1865ZM65.8173 26.74C64.1688 26.74 62.7262 27.4428 61.7238 28.7674L65.7109 31.7846C65.7396 31.7466 65.7567 31.7318 65.7588 31.7301C65.76 31.729 65.7533 31.7347 65.7404 31.741C65.7276 31.7473 65.7212 31.7482 65.7273 31.7469C65.7344 31.7453 65.7624 31.74 65.8173 31.74V26.74ZM61.744 28.7411C60.7484 30.0212 60.4333 31.6239 60.4333 33.188H65.4333C65.4333 32.2134 65.641 31.8748 65.6907 31.8109L61.744 28.7411ZM60.4333 33.188C60.4333 34.7585 60.7509 36.351 61.7238 37.6366L65.7109 34.6194C65.6384 34.5236 65.4333 34.1561 65.4333 33.188H60.4333ZM61.744 37.6629C62.7569 38.9652 64.196 39.636 65.8173 39.636V34.636C65.7579 34.636 65.7252 34.6304 65.7135 34.6279C65.7027 34.6256 65.7057 34.6252 65.7162 34.6302C65.7269 34.6353 65.7332 34.6403 65.7329 34.64C65.7319 34.6392 65.7169 34.6268 65.6907 34.5931L61.744 37.6629ZM65.8173 39.636C66.8478 39.636 67.9024 39.3803 68.8239 38.7177C69.7393 38.0594 70.3178 37.1474 70.662 36.1895L65.9567 34.4985C65.9132 34.6194 65.8775 34.6752 65.867 34.6901C65.8589 34.7016 65.8701 34.6833 65.9048 34.6583C65.9205 34.647 65.9362 34.6379 65.95 34.6313C65.9636 34.6247 65.9714 34.6225 65.9707 34.6227C65.9693 34.6231 65.924 34.636 65.8173 34.636V39.636ZM68.3093 37.844H73.4053V32.844H68.3093V37.844ZM70.9661 34.7964C70.6663 36.1316 70.0774 37.0429 69.2531 37.6931L72.3496 41.6189C74.1759 40.1784 75.323 38.2151 75.8446 35.8916L70.9661 34.7964ZM69.2531 37.6931C68.4336 38.3395 67.3693 38.724 65.9013 38.724V43.724C68.316 43.724 70.5184 43.0632 72.3496 41.6189L69.2531 37.6931ZM65.9013 38.724C64.737 38.724 63.796 38.4788 63.0129 38.0506L60.6138 42.4374C62.2201 43.3158 64.0043 43.724 65.9013 43.724V38.724ZM63.0275 38.0586C62.2737 37.6398 61.681 37.0501 61.2283 36.2328L56.8544 38.6552C57.7457 40.2646 59.001 41.5415 60.5992 42.4294L63.0275 38.0586ZM61.2425 36.2588C60.8176 35.4696 60.5613 34.4722 60.5613 33.188H55.5613C55.5613 35.1518 55.9584 36.9917 56.8402 38.6292L61.2425 36.2588ZM90.6105 34.336V36.836H92.8386L93.094 34.6226L90.6105 34.336ZM79.7745 34.336V31.836H77.0748L77.2818 34.5277L79.7745 34.336ZM80.6985 36.576L78.962 38.3745L78.9935 38.4049L79.0261 38.4342L80.6985 36.576ZM85.2345 35.82V33.32H83.637L82.9658 34.7697L85.2345 35.82ZM90.3305 35.82L92.7532 36.4367L93.5466 33.32H90.3305V35.82ZM88.9025 38.592L86.9891 36.983L86.9782 36.9959L86.9676 37.0089L88.9025 38.592ZM86.3545 40.524L87.389 42.7999L86.3545 40.524ZM78.8225 40.244L77.6229 42.4374L77.6229 42.4374L78.8225 40.244ZM76.0225 37.444L78.2094 36.2328L78.2094 36.2328L76.0225 37.444ZM75.9945 28.932L73.8075 27.7207L73.8003 27.7337L73.7933 27.7467L75.9945 28.932ZM78.7945 26.132L79.994 28.3254L79.994 28.3254L78.7945 26.132ZM86.9425 26.104L85.7551 28.3041L85.7551 28.3041L86.9425 26.104ZM89.6865 28.82L87.5011 30.0341L87.5084 30.0473L87.5159 30.0603L89.6865 28.82ZM85.7945 31.676V34.176H88.2945V31.676H85.7945ZM84.9545 29.716L86.5918 27.8268L86.5918 27.8268L84.9545 29.716ZM80.8105 29.688L79.21 27.7674L79.194 27.7808L79.1781 27.7945L80.8105 29.688ZM79.8025 31.676L77.3309 31.2999L76.8933 34.176H79.8025V31.676ZM88.1945 32.936C88.1945 33.2801 88.1729 33.6508 88.1269 34.0494L93.094 34.6226C93.16 34.0505 93.1945 33.4879 93.1945 32.936H88.1945ZM90.6105 31.836H79.7745V36.836H90.6105V31.836ZM77.2818 34.5277C77.3893 35.9246 77.8638 37.3142 78.962 38.3745L82.435 34.7775C82.4298 34.7725 82.405 34.7494 82.3726 34.6707C82.3368 34.584 82.2883 34.4197 82.2671 34.1443L77.2818 34.5277ZM79.0261 38.4342C80.0768 39.3799 81.3663 39.832 82.7425 39.832V34.832C82.5133 34.832 82.4401 34.7801 82.3709 34.7178L79.0261 38.4342ZM82.7425 39.832C83.6924 39.832 84.6712 39.6296 85.5583 39.0913C86.4571 38.546 87.0919 37.7586 87.5031 36.8703L82.9658 34.7697C82.9348 34.8366 82.9152 34.8578 82.9189 34.8536C82.9243 34.8472 82.9408 34.8311 82.9647 34.8167C82.9875 34.8028 82.9935 34.8048 82.9665 34.8115C82.9369 34.8189 82.8664 34.832 82.7425 34.832V39.832ZM85.2345 38.32H90.3305V33.32H85.2345V38.32ZM87.9077 35.2033C87.7405 35.8602 87.4406 36.446 86.9891 36.983L90.8159 40.201C91.7456 39.0953 92.3978 37.8331 92.7532 36.4367L87.9077 35.2033ZM86.9676 37.0089C86.5537 37.5148 86.0197 37.93 85.32 38.2481L87.389 42.7999C88.7425 42.1847 89.9072 41.3119 90.8374 40.1751L86.9676 37.0089ZM85.32 38.2481C84.6567 38.5496 83.8678 38.724 82.9105 38.724V43.724C84.4918 43.724 85.9989 43.4318 87.389 42.7999L85.32 38.2481ZM82.9105 38.724C81.7461 38.724 80.8051 38.4788 80.022 38.0506L77.6229 42.4374C79.2292 43.3158 81.0135 43.724 82.9105 43.724V38.724ZM80.022 38.0506C79.251 37.6289 78.6565 37.0399 78.2094 36.2328L73.8355 38.6552C74.7324 40.2747 76.0046 41.5524 77.6229 42.4374L80.022 38.0506ZM78.2094 36.2328C77.7753 35.449 77.5145 34.461 77.5145 33.188H72.5145C72.5145 35.163 72.9256 37.0124 73.8355 38.6552L78.2094 36.2328ZM77.5145 33.188C77.5145 31.9038 77.7707 30.9064 78.1956 30.1172L73.7933 27.7467C72.9115 29.3843 72.5145 31.2242 72.5145 33.188H77.5145ZM78.1814 30.1432C78.6285 29.3361 79.223 28.7471 79.994 28.3254L77.5949 23.9386C75.9766 24.8236 74.7044 26.1013 73.8075 27.7207L78.1814 30.1432ZM79.994 28.3254C80.7727 27.8996 81.7218 27.652 82.9105 27.652V22.652C81.0004 22.652 79.2056 23.0578 77.5949 23.9386L79.994 28.3254ZM82.9105 27.652C84.0632 27.652 84.9896 27.8909 85.7551 28.3041L88.1298 23.9039C86.5433 23.0478 84.7818 22.652 82.9105 22.652V27.652ZM85.7551 28.3041C86.5082 28.7105 87.0779 29.2723 87.5011 30.0341L91.8719 27.6059C90.9884 26.0157 89.7288 24.7669 88.1298 23.9039L85.7551 28.3041ZM87.5159 30.0603C87.94 30.8026 88.1945 31.7337 88.1945 32.936H93.1945C93.1945 31.0023 92.7769 29.1894 91.8571 27.5797L87.5159 30.0603ZM88.2945 31.676C88.2945 30.2178 87.763 28.8418 86.5918 27.8268L83.3171 31.6052C83.3243 31.6115 83.3197 31.6086 83.3102 31.5956C83.3004 31.5823 83.2921 31.5675 83.2866 31.5548C83.2814 31.5426 83.2828 31.5417 83.2859 31.5579C83.2891 31.5748 83.2945 31.6126 83.2945 31.676H88.2945ZM86.5918 27.8268C85.5165 26.8948 84.2103 26.488 82.8545 26.488V31.488C83.1786 31.488 83.2725 31.5665 83.3171 31.6052L86.5918 27.8268ZM82.8545 26.488C81.5302 26.488 80.2656 26.8878 79.21 27.7674L82.4109 31.6086C82.4753 31.5549 82.5734 31.488 82.8545 31.488V26.488ZM79.1781 27.7945C78.093 28.7299 77.5312 29.9838 77.3309 31.2999L82.274 32.0521C82.306 31.8422 82.3528 31.7237 82.3822 31.6656C82.4087 31.6134 82.4289 31.5935 82.4428 31.5815L79.1781 27.7945ZM79.8025 34.176H85.7945V29.176H79.8025V34.176ZM107.864 34.336V36.836H110.093L110.348 34.6226L107.864 34.336ZM97.0284 34.336V31.836H94.3287L94.5357 34.5277L97.0284 34.336ZM97.9524 36.576L96.2159 38.3745L96.2474 38.4049L96.28 38.4342L97.9524 36.576ZM102.488 35.82V33.32H100.891L100.22 34.7697L102.488 35.82ZM107.584 35.82L110.007 36.4367L110.8 33.32H107.584V35.82ZM106.156 38.592L104.243 36.983L104.232 36.9959L104.221 37.0089L106.156 38.592ZM103.608 40.524L104.643 42.7999L103.608 40.524ZM96.0764 40.244L94.8768 42.4374L94.8768 42.4374L96.0764 40.244ZM93.2764 37.444L95.4634 36.2328L95.4634 36.2328L93.2764 37.444ZM93.2484 28.932L91.0614 27.7207L91.0542 27.7337L91.0472 27.7467L93.2484 28.932ZM96.0484 26.132L97.2479 28.3254L97.2479 28.3254L96.0484 26.132ZM104.196 26.104L103.009 28.3041L103.009 28.3041L104.196 26.104ZM106.94 28.82L104.755 30.0341L104.762 30.0473L104.77 30.0603L106.94 28.82ZM103.048 31.676V34.176H105.548V31.676H103.048ZM102.208 29.716L103.846 27.8268L103.846 27.8268L102.208 29.716ZM98.0644 29.688L96.4639 27.7674L96.4479 27.7808L96.432 27.7945L98.0644 29.688ZM97.0564 31.676L94.5848 31.2999L94.1472 34.176H97.0564V31.676ZM105.448 32.936C105.448 33.2801 105.427 33.6508 105.381 34.0494L110.348 34.6226C110.414 34.0505 110.448 33.4879 110.448 32.936H105.448ZM107.864 31.836H97.0284V36.836H107.864V31.836ZM94.5357 34.5277C94.6432 35.9246 95.1177 37.3142 96.2159 38.3745L99.6889 34.7775C99.6837 34.7725 99.6589 34.7494 99.6265 34.6707C99.5907 34.584 99.5422 34.4197 99.521 34.1443L94.5357 34.5277ZM96.28 38.4342C97.3308 39.3799 98.6202 39.832 99.9964 39.832V34.832C99.7673 34.832 99.694 34.7801 99.6248 34.7178L96.28 38.4342ZM99.9964 39.832C100.946 39.832 101.925 39.6296 102.812 39.0913C103.711 38.546 104.346 37.7586 104.757 36.8703L100.22 34.7697C100.189 34.8366 100.169 34.8578 100.173 34.8536C100.178 34.8472 100.195 34.8311 100.219 34.8167C100.241 34.8028 100.247 34.8048 100.22 34.8115C100.191 34.8189 100.12 34.832 99.9964 34.832V39.832ZM102.488 38.32H107.584V33.32H102.488V38.32ZM105.162 35.2033C104.994 35.8602 104.695 36.446 104.243 36.983L108.07 40.201C109 39.0953 109.652 37.8331 110.007 36.4367L105.162 35.2033ZM104.221 37.0089C103.808 37.5148 103.274 37.93 102.574 38.2481L104.643 42.7999C105.996 42.1847 107.161 41.3119 108.091 40.1751L104.221 37.0089ZM102.574 38.2481C101.911 38.5496 101.122 38.724 100.164 38.724V43.724C101.746 43.724 103.253 43.4318 104.643 42.7999L102.574 38.2481ZM100.164 38.724C99.0001 38.724 98.059 38.4788 97.2759 38.0506L94.8768 42.4374C96.4831 43.3158 98.2674 43.724 100.164 43.724V38.724ZM97.2759 38.0506C96.5049 37.6289 95.9104 37.0399 95.4634 36.2328L91.0894 38.6552C91.9863 40.2747 93.2585 41.5524 94.8768 42.4374L97.2759 38.0506ZM95.4634 36.2328C95.0293 35.449 94.7684 34.461 94.7684 33.188H89.7684C89.7684 35.163 90.1795 37.0124 91.0894 38.6552L95.4634 36.2328ZM94.7684 33.188C94.7684 31.9038 95.0246 30.9064 95.4496 30.1172L91.0472 27.7467C90.1654 29.3843 89.7684 31.2242 89.7684 33.188H94.7684ZM95.4354 30.1432C95.8824 29.3361 96.4769 28.7471 97.2479 28.3254L94.8488 23.9386C93.2305 24.8236 91.9583 26.1013 91.0614 27.7207L95.4354 30.1432ZM97.2479 28.3254C98.0266 27.8996 98.9758 27.652 100.164 27.652V22.652C98.2543 22.652 96.4595 23.0578 94.8488 23.9386L97.2479 28.3254ZM100.164 27.652C101.317 27.652 102.244 27.8909 103.009 28.3041L105.384 23.9039C103.797 23.0478 102.036 22.652 100.164 22.652V27.652ZM103.009 28.3041C103.762 28.7105 104.332 29.2723 104.755 30.0341L109.126 27.6059C108.242 26.0157 106.983 24.7669 105.384 23.9039L103.009 28.3041ZM104.77 30.0603C105.194 30.8026 105.448 31.7337 105.448 32.936H110.448C110.448 31.0023 110.031 29.1894 109.111 27.5797L104.77 30.0603ZM105.548 31.676C105.548 30.2178 105.017 28.8418 103.846 27.8268L100.571 31.6052C100.578 31.6115 100.574 31.6086 100.564 31.5956C100.554 31.5823 100.546 31.5675 100.541 31.5548C100.535 31.5426 100.537 31.5417 100.54 31.5579C100.543 31.5748 100.548 31.6126 100.548 31.676H105.548ZM103.846 27.8268C102.77 26.8948 101.464 26.488 100.108 26.488V31.488C100.433 31.488 100.526 31.5665 100.571 31.6052L103.846 27.8268ZM100.108 26.488C98.7841 26.488 97.5195 26.8878 96.4639 27.7674L99.6648 31.6086C99.7292 31.5549 99.8273 31.488 100.108 31.488V26.488ZM96.432 27.7945C95.3469 28.7299 94.7851 29.9838 94.5848 31.2999L99.5279 32.0521C99.5599 31.8422 99.6067 31.7237 99.6361 31.6656C99.6626 31.6134 99.6828 31.5935 99.6967 31.5815L96.432 27.7945ZM97.0564 34.176H103.048V29.176H97.0564V34.176ZM110.418 28.932L108.189 27.8003L108.182 27.814L108.175 27.8278L110.418 28.932ZM112.91 26.132L114.235 28.252L114.235 28.252L112.91 26.132ZM119.21 25.796L118.073 28.0221L118.082 28.0271L118.092 28.0321L119.21 25.796ZM121.226 27.532L119.146 28.9187L123.726 35.7889V27.532H121.226ZM121.226 20.28V17.78H118.726V20.28H121.226ZM126.014 20.28H128.514V17.78H126.014V20.28ZM126.014 41V43.5H128.514V41H126.014ZM121.226 41H118.726V43.5H121.226V41ZM121.226 38.76H123.726V29.7342L119.083 37.4738L121.226 38.76ZM119.294 40.552L118.118 38.3461L118.107 38.3516L118.097 38.3573L119.294 40.552ZM112.91 40.244L111.558 42.3469L111.572 42.3556L111.585 42.364L112.91 40.244ZM110.418 37.416L108.169 38.5067L108.179 38.5273L108.189 38.5477L110.418 37.416ZM120.218 30.36L118.402 32.078L118.414 32.0908L118.426 32.1034L120.218 30.36ZM115.374 30.36L113.582 28.6166L113.582 28.6173L115.374 30.36ZM115.374 36.016L113.535 37.7097L113.559 37.7349L113.582 37.7594L115.374 36.016ZM120.218 36.016L118.426 34.2726L118.414 34.2852L118.402 34.298L120.218 36.016ZM112.022 33.16C112.022 31.8665 112.262 30.8475 112.661 30.0362L108.175 27.8278C107.38 29.4432 107.022 31.2428 107.022 33.16H112.022ZM112.647 30.0637C113.08 29.2125 113.615 28.6397 114.235 28.252L111.585 24.012C110.115 24.9309 108.989 26.2248 108.189 27.8003L112.647 30.0637ZM114.235 28.252C114.865 27.8584 115.569 27.652 116.41 27.652V22.652C114.676 22.652 113.046 23.0989 111.585 24.012L114.235 28.252ZM116.41 27.652C117.077 27.652 117.615 27.7883 118.073 28.0221L120.348 23.5699C119.125 22.945 117.797 22.652 116.41 22.652V27.652ZM118.092 28.0321C118.601 28.2863 118.925 28.5873 119.146 28.9187L123.306 26.1452C122.557 25.0207 121.537 24.1644 120.328 23.5599L118.092 28.0321ZM123.726 27.532V20.28H118.726V27.532H123.726ZM121.226 22.78H126.014V17.78H121.226V22.78ZM123.514 20.28V41H128.514V20.28H123.514ZM126.014 38.5H121.226V43.5H126.014V38.5ZM123.726 41V38.76H118.726V41H123.726ZM119.083 37.4738C118.889 37.7961 118.597 38.0908 118.118 38.3461L120.471 42.7579C121.672 42.1172 122.667 41.2172 123.37 40.0462L119.083 37.4738ZM118.097 38.3573C117.703 38.5722 117.168 38.724 116.41 38.724V43.724C117.856 43.724 119.243 43.4278 120.491 42.7467L118.097 38.3573ZM116.41 38.724C115.569 38.724 114.865 38.5176 114.235 38.124L111.585 42.364C113.046 43.2771 114.676 43.724 116.41 43.724V38.724ZM114.262 38.1411C113.625 37.7316 113.082 37.1404 112.647 36.2843L108.189 38.5477C108.986 40.1182 110.105 41.4124 111.558 42.3469L114.262 38.1411ZM112.668 36.3253C112.261 35.4872 112.022 34.4523 112.022 33.16H107.022C107.022 35.0783 107.38 36.8808 108.169 38.5067L112.668 36.3253ZM123.726 33.188C123.726 31.5068 123.239 29.88 122.01 28.6166L118.426 32.1034C118.541 32.2213 118.726 32.4799 118.726 33.188H123.726ZM122.034 28.642C120.908 27.4514 119.448 26.824 117.81 26.824V31.824C118.076 31.824 118.222 31.8873 118.402 32.078L122.034 28.642ZM117.81 26.824C116.174 26.824 114.719 27.4489 113.582 28.6166L117.166 32.1034C117.374 31.8898 117.542 31.824 117.81 31.824V26.824ZM113.582 28.6173C112.359 29.8746 111.894 31.5013 111.894 33.16H116.894C116.894 32.4294 117.083 32.1894 117.167 32.1027L113.582 28.6173ZM111.894 33.16C111.894 34.8254 112.361 36.4351 113.535 37.7097L117.213 34.3223C117.08 34.1782 116.894 33.8839 116.894 33.16H111.894ZM113.582 37.7594C114.719 38.9271 116.174 39.552 117.81 39.552V34.552C117.542 34.552 117.374 34.4862 117.166 34.2726L113.582 37.7594ZM117.81 39.552C119.448 39.552 120.908 38.9246 122.034 37.734L118.402 34.298C118.222 34.4887 118.076 34.552 117.81 34.552V39.552ZM122.01 37.7594C123.239 36.496 123.726 34.8692 123.726 33.188H118.726C118.726 33.8961 118.541 34.1547 118.426 34.2726L122.01 37.7594Z" fill="#041522" mask="url(#path-1-outside-1_15_60)"/>
</svg>
